<svg xmlns="http://www.w3.org/2000/svg" xmlns:xlink="http://www.w3.org/1999/xlink" width="500" zoomAndPan="magnify" viewBox="0 0 375 374.999991" height="500" preserveAspectRatio="xMidYMid meet" version="1.0"><defs><clipPath id="62b46acbb9"><path d="M 156.824219 233.320312 L 226.410156 233.320312 L 226.410156 326.285156 L 156.824219 326.285156 Z M 156.824219 233.320312 " clip-rule="nonzero"/></clipPath><clipPath id="29640cb62b"><path d="M 226.410156 302.90625 L 226.410156 233.320312 L 156.824219 256.515625 L 156.824219 326.101562 Z M 226.410156 302.90625 " clip-rule="nonzero"/></clipPath><clipPath id="c3997389cc"><path d="M 156.824219 152.800781 L 226.410156 152.800781 L 226.410156 245.761719 L 156.824219 245.761719 Z M 156.824219 152.800781 " clip-rule="nonzero"/></clipPath><clipPath id="300c6dff4e"><path d="M 226.410156 222.386719 L 226.410156 152.800781 L 156.824219 175.996094 L 156.824219 245.582031 Z M 226.410156 222.386719 " clip-rule="nonzero"/></clipPath><clipPath id="a91b1ea074"><path d="M 79.554688 97.765625 L 149.136719 97.765625 L 149.136719 190.730469 L 79.554688 190.730469 Z M 79.554688 97.765625 " clip-rule="nonzero"/></clipPath><clipPath id="827c9c4b8c"><path d="M 149.136719 167.351562 L 149.136719 97.765625 L 79.554688 120.960938 L 79.554688 190.546875 Z M 149.136719 167.351562 " clip-rule="nonzero"/></clipPath><clipPath id="4df2493c8f"><path d="M 157.40625 71.523438 L 226.992188 71.523438 L 226.992188 164.484375 L 157.40625 164.484375 Z M 157.40625 71.523438 " clip-rule="nonzero"/></clipPath><clipPath id="13bfd1cdd4"><path d="M 157.40625 94.898438 L 157.40625 164.484375 L 226.992188 141.289062 L 226.992188 71.703125 Z M 157.40625 94.898438 " clip-rule="nonzero"/></clipPath><clipPath id="ec8dec2495"><path d="M 225.847656 48.714844 L 295.433594 48.714844 L 295.433594 141.675781 L 225.847656 141.675781 Z M 225.847656 48.714844 " clip-rule="nonzero"/></clipPath><clipPath id="58b4125999"><path d="M 225.847656 72.089844 L 225.847656 141.675781 L 295.433594 118.480469 L 295.433594 48.894531 Z M 225.847656 72.089844 " clip-rule="nonzero"/></clipPath></defs><g clip-path="url(#62b46acbb9)"><g clip-path="url(#29640cb62b)"><path fill="#ffffff" d="M 226.410156 233.320312 L 226.410156 326.011719 L 156.824219 326.011719 L 156.824219 233.320312 Z M 226.410156 233.320312 " fill-opacity="1" fill-rule="nonzero"/></g></g><g clip-path="url(#c3997389cc)"><g clip-path="url(#300c6dff4e)"><path fill="#ffffff" d="M 226.410156 152.800781 L 226.410156 245.492188 L 156.824219 245.492188 L 156.824219 152.800781 Z M 226.410156 152.800781 " fill-opacity="1" fill-rule="nonzero"/></g></g><g clip-path="url(#a91b1ea074)"><g clip-path="url(#827c9c4b8c)"><path fill="#ff6700" d="M 149.136719 97.765625 L 149.136719 190.457031 L 79.554688 190.457031 L 79.554688 97.765625 Z M 149.136719 97.765625 " fill-opacity="1" fill-rule="nonzero"/></g></g><g clip-path="url(#4df2493c8f)"><g clip-path="url(#13bfd1cdd4)"><path fill="#ffffff" d="M 157.40625 164.484375 L 157.40625 71.792969 L 226.992188 71.792969 L 226.992188 164.484375 Z M 157.40625 164.484375 " fill-opacity="1" fill-rule="nonzero"/></g></g><g clip-path="url(#ec8dec2495)"><g clip-path="url(#58b4125999)"><path fill="#ffffff" d="M 225.847656 141.675781 L 225.847656 48.988281 L 295.433594 48.988281 L 295.433594 141.675781 Z M 225.847656 141.675781 " fill-opacity="1" fill-rule="nonzero"/></g></g></svg>