<svg xmlns="http://www.w3.org/2000/svg" xmlns:xlink="http://www.w3.org/1999/xlink" width="500" zoomAndPan="magnify" viewBox="0 0 375 374.999991" height="500" preserveAspectRatio="xMidYMid meet" version="1.0"><defs><g/><clipPath id="f1ff3c50aa"><path d="M 58.601562 202.566406 L 81.476562 202.566406 L 81.476562 233.128906 L 58.601562 233.128906 Z M 58.601562 202.566406 " clip-rule="nonzero"/></clipPath><clipPath id="12428c512b"><path d="M 81.476562 225.445312 L 81.476562 202.566406 L 58.601562 210.195312 L 58.601562 233.070312 Z M 81.476562 225.445312 " clip-rule="nonzero"/></clipPath><clipPath id="f552b09d70"><path d="M 58.601562 176.09375 L 81.476562 176.09375 L 81.476562 206.65625 L 58.601562 206.65625 Z M 58.601562 176.09375 " clip-rule="nonzero"/></clipPath><clipPath id="0cb7b34f50"><path d="M 81.476562 198.972656 L 81.476562 176.09375 L 58.601562 183.722656 L 58.601562 206.597656 Z M 81.476562 198.972656 " clip-rule="nonzero"/></clipPath><clipPath id="494c9f1439"><path d="M 33.195312 158.003906 L 56.074219 158.003906 L 56.074219 188.566406 L 33.195312 188.566406 Z M 33.195312 158.003906 " clip-rule="nonzero"/></clipPath><clipPath id="c5a21fd032"><path d="M 56.074219 180.878906 L 56.074219 158.003906 L 33.195312 165.628906 L 33.195312 188.503906 Z M 56.074219 180.878906 " clip-rule="nonzero"/></clipPath><clipPath id="ae03315c2b"><path d="M 58.789062 149.367188 L 81.667969 149.367188 L 81.667969 179.929688 L 58.789062 179.929688 Z M 58.789062 149.367188 " clip-rule="nonzero"/></clipPath><clipPath id="1af104cccf"><path d="M 58.789062 157.050781 L 58.789062 179.929688 L 81.667969 172.304688 L 81.667969 149.425781 Z M 58.789062 157.050781 " clip-rule="nonzero"/></clipPath><clipPath id="f4283d2b95"><path d="M 80.730469 142 L 103.605469 142 L 103.605469 172.492188 L 80.730469 172.492188 Z M 80.730469 142 " clip-rule="nonzero"/></clipPath><clipPath id="262b90b524"><path d="M 80.730469 149.617188 L 80.730469 172.492188 L 103.605469 164.867188 L 103.605469 141.992188 Z M 80.730469 149.617188 " clip-rule="nonzero"/></clipPath></defs><g clip-path="url(#f1ff3c50aa)"><g clip-path="url(#12428c512b)"><path fill="#ffffff" d="M 81.476562 202.566406 L 81.476562 233.039062 L 58.601562 233.039062 L 58.601562 202.566406 Z M 81.476562 202.566406 " fill-opacity="1" fill-rule="nonzero"/></g></g><g clip-path="url(#f552b09d70)"><g clip-path="url(#0cb7b34f50)"><path fill="#ffffff" d="M 81.476562 176.09375 L 81.476562 206.570312 L 58.601562 206.570312 L 58.601562 176.09375 Z M 81.476562 176.09375 " fill-opacity="1" fill-rule="nonzero"/></g></g><g clip-path="url(#494c9f1439)"><g clip-path="url(#c5a21fd032)"><path fill="#ff6700" d="M 56.074219 158.003906 L 56.074219 188.476562 L 33.195312 188.476562 L 33.195312 158.003906 Z M 56.074219 158.003906 " fill-opacity="1" fill-rule="nonzero"/></g></g><g clip-path="url(#ae03315c2b)"><g clip-path="url(#1af104cccf)"><path fill="#ffffff" d="M 58.789062 179.929688 L 58.789062 149.457031 L 81.667969 149.457031 L 81.667969 179.929688 Z M 58.789062 179.929688 " fill-opacity="1" fill-rule="nonzero"/></g></g><g clip-path="url(#f4283d2b95)"><g clip-path="url(#262b90b524)"><path fill="#ffffff" d="M 80.730469 172.492188 L 80.730469 142.019531 L 103.605469 142.019531 L 103.605469 172.492188 Z M 80.730469 172.492188 " fill-opacity="1" fill-rule="nonzero"/></g></g><g fill="#ff6700" fill-opacity="1"><g transform="translate(123.093498, 182.170651)"><g><path d="M 2.109375 -36.660156 C 1.648438 -36.660156 1.375 -36.386719 1.375 -35.925781 L 1.375 -31.34375 C 1.375 -30.886719 1.648438 -30.609375 2.109375 -30.609375 L 7.421875 -30.609375 L 7.421875 -0.734375 C 7.421875 -0.230469 7.699219 0 8.15625 0 L 12.921875 0 C 13.425781 0 13.65625 -0.230469 13.65625 -0.734375 L 13.65625 -30.609375 L 18.972656 -30.609375 C 19.476562 -30.609375 19.703125 -30.886719 19.703125 -31.34375 L 19.703125 -35.925781 C 19.703125 -36.386719 19.476562 -36.660156 18.972656 -36.660156 Z M 2.109375 -36.660156 "/></g></g></g><g fill="#ff6700" fill-opacity="1"><g transform="translate(144.170858, 182.170651)"><g><path d="M 18.695312 -36.660156 C 18.148438 -36.660156 17.824219 -36.429688 17.644531 -35.925781 L 12.511719 -22.773438 L 7.378906 -35.925781 C 7.195312 -36.429688 6.875 -36.660156 6.324219 -36.660156 L 1.742188 -36.660156 C 1.054688 -36.660156 0.734375 -36.246094 1.007812 -35.605469 L 9.394531 -15.214844 L 9.394531 -0.917969 C 9.394531 -0.320312 9.714844 0 10.3125 0 L 14.710938 0 C 15.304688 0 15.625 -0.320312 15.625 -0.917969 L 15.625 -15.214844 L 24.011719 -35.605469 C 24.289062 -36.246094 23.964844 -36.660156 23.277344 -36.660156 Z M 18.695312 -36.660156 "/></g></g></g><g fill="#ff6700" fill-opacity="1"><g transform="translate(169.188775, 182.170651)"><g><path d="M 21.125 -30.0625 C 21.125 -34.367188 18.835938 -36.660156 14.527344 -36.660156 L 3.023438 -36.660156 C 2.566406 -36.660156 2.292969 -36.386719 2.292969 -35.925781 L 2.292969 -0.734375 C 2.292969 -0.273438 2.566406 0 3.023438 0 L 7.789062 0 C 8.25 0 8.523438 -0.273438 8.523438 -0.734375 L 8.523438 -12.28125 L 11.683594 -12.28125 L 14.753906 -0.640625 C 14.847656 -0.230469 15.078125 0 15.535156 0 L 20.300781 0 C 20.804688 0 21.078125 -0.273438 20.941406 -0.824219 L 17.78125 -12.832031 C 19.980469 -13.792969 21.125 -15.808594 21.125 -18.878906 Z M 8.523438 -18.328125 L 8.523438 -30.609375 L 13.058594 -30.609375 C 14.25 -30.609375 14.894531 -29.96875 14.894531 -28.777344 L 14.894531 -20.164062 C 14.894531 -18.972656 14.25 -18.328125 13.058594 -18.328125 Z M 8.523438 -18.328125 "/></g></g></g><g fill="#ff6700" fill-opacity="1"><g transform="translate(192.602973, 182.170651)"><g><path d="M 20.574219 -35.925781 C 20.574219 -36.386719 20.390625 -36.660156 19.84375 -36.660156 L 2.980469 -36.660156 C 2.566406 -36.660156 2.292969 -36.386719 2.292969 -35.925781 L 2.292969 -0.734375 C 2.292969 -0.273438 2.566406 0 2.980469 0 L 19.84375 0 C 20.390625 0 20.574219 -0.273438 20.574219 -0.734375 L 20.574219 -5.316406 C 20.574219 -5.820312 20.390625 -6.050781 19.84375 -6.050781 L 8.386719 -6.050781 L 8.386719 -15.304688 L 17.136719 -15.304688 C 17.597656 -15.304688 17.871094 -15.582031 17.871094 -16.085938 L 17.871094 -20.621094 C 17.871094 -21.125 17.597656 -21.398438 17.136719 -21.398438 L 8.386719 -21.398438 L 8.386719 -30.566406 L 19.84375 -30.566406 C 20.390625 -30.566406 20.574219 -30.886719 20.574219 -31.34375 Z M 20.574219 -35.925781 "/></g></g></g><g fill="#ff6700" fill-opacity="1"><g transform="translate(215.472398, 182.170651)"><g/></g></g><g fill="#ffffff" fill-opacity="1"><g transform="translate(123.093498, 227.920648)"><g><path d="M 20.574219 -35.925781 C 20.574219 -36.386719 20.390625 -36.660156 19.84375 -36.660156 L 2.980469 -36.660156 C 2.566406 -36.660156 2.292969 -36.386719 2.292969 -35.925781 L 2.292969 -0.734375 C 2.292969 -0.273438 2.566406 0 2.980469 0 L 19.84375 0 C 20.390625 0 20.574219 -0.273438 20.574219 -0.734375 L 20.574219 -5.316406 C 20.574219 -5.820312 20.390625 -6.050781 19.84375 -6.050781 L 8.386719 -6.050781 L 8.386719 -15.304688 L 17.136719 -15.304688 C 17.597656 -15.304688 17.871094 -15.582031 17.871094 -16.085938 L 17.871094 -20.621094 C 17.871094 -21.125 17.597656 -21.398438 17.136719 -21.398438 L 8.386719 -21.398438 L 8.386719 -30.566406 L 19.84375 -30.566406 C 20.390625 -30.566406 20.574219 -30.886719 20.574219 -31.34375 Z M 20.574219 -35.925781 "/></g></g></g><g fill="#ffffff" fill-opacity="1"><g transform="translate(145.957853, 227.920648)"><g><path d="M 21.445312 -36.660156 C 20.894531 -36.660156 20.574219 -36.386719 20.4375 -35.835938 L 15.351562 -13.015625 L 10.265625 -35.835938 C 10.128906 -36.386719 9.804688 -36.660156 9.257812 -36.660156 L 3.207031 -36.660156 C 2.613281 -36.660156 2.292969 -36.339844 2.292969 -35.742188 L 2.292969 -0.917969 C 2.292969 -0.320312 2.613281 0 3.207031 0 L 7.421875 0 C 8.019531 0 8.339844 -0.320312 8.339844 -0.917969 L 8.339844 -21.539062 L 8.660156 -21.539062 L 13.199219 -0.824219 C 13.335938 -0.273438 13.65625 0 14.207031 0 L 16.453125 0 C 17 0 17.320312 -0.273438 17.460938 -0.824219 L 21.996094 -21.539062 L 22.316406 -21.539062 L 22.316406 -0.917969 C 22.316406 -0.320312 22.636719 0 23.234375 0 L 27.496094 0 C 28.089844 0 28.410156 -0.320312 28.410156 -0.917969 L 28.410156 -35.742188 C 28.410156 -36.339844 28.089844 -36.660156 27.496094 -36.660156 Z M 21.445312 -36.660156 "/></g></g></g><g fill="#ffffff" fill-opacity="1"><g transform="translate(176.657486, 227.920648)"><g><path d="M 20.574219 -35.925781 C 20.574219 -36.386719 20.390625 -36.660156 19.84375 -36.660156 L 2.980469 -36.660156 C 2.566406 -36.660156 2.292969 -36.386719 2.292969 -35.925781 L 2.292969 -0.734375 C 2.292969 -0.273438 2.566406 0 2.980469 0 L 19.84375 0 C 20.390625 0 20.574219 -0.273438 20.574219 -0.734375 L 20.574219 -5.316406 C 20.574219 -5.820312 20.390625 -6.050781 19.84375 -6.050781 L 8.386719 -6.050781 L 8.386719 -15.304688 L 17.136719 -15.304688 C 17.597656 -15.304688 17.871094 -15.582031 17.871094 -16.085938 L 17.871094 -20.621094 C 17.871094 -21.125 17.597656 -21.398438 17.136719 -21.398438 L 8.386719 -21.398438 L 8.386719 -30.566406 L 19.84375 -30.566406 C 20.390625 -30.566406 20.574219 -30.886719 20.574219 -31.34375 Z M 20.574219 -35.925781 "/></g></g></g><g fill="#ffffff" fill-opacity="1"><g transform="translate(199.521841, 227.920648)"><g><path d="M 21.125 -30.0625 C 21.125 -34.367188 18.835938 -36.660156 14.527344 -36.660156 L 3.023438 -36.660156 C 2.566406 -36.660156 2.292969 -36.386719 2.292969 -35.925781 L 2.292969 -0.734375 C 2.292969 -0.273438 2.566406 0 3.023438 0 L 7.789062 0 C 8.25 0 8.523438 -0.273438 8.523438 -0.734375 L 8.523438 -12.28125 L 11.683594 -12.28125 L 14.753906 -0.640625 C 14.847656 -0.230469 15.078125 0 15.535156 0 L 20.300781 0 C 20.804688 0 21.078125 -0.273438 20.941406 -0.824219 L 17.78125 -12.832031 C 19.980469 -13.792969 21.125 -15.808594 21.125 -18.878906 Z M 8.523438 -18.328125 L 8.523438 -30.609375 L 13.058594 -30.609375 C 14.25 -30.609375 14.894531 -29.96875 14.894531 -28.777344 L 14.894531 -20.164062 C 14.894531 -18.972656 14.25 -18.328125 13.058594 -18.328125 Z M 8.523438 -18.328125 "/></g></g></g><g fill="#ffffff" fill-opacity="1"><g transform="translate(222.936039, 227.920648)"><g><path d="M 2.292969 -6.597656 C 2.292969 -2.292969 4.582031 0 8.890625 0 L 14.9375 0 C 19.199219 0 21.539062 -2.292969 21.539062 -6.597656 L 21.539062 -19.339844 C 21.539062 -19.84375 21.261719 -20.070312 20.804688 -20.070312 L 13.105469 -20.070312 C 12.601562 -20.070312 12.371094 -19.84375 12.371094 -19.339844 L 12.371094 -14.753906 C 12.371094 -14.296875 12.601562 -14.023438 13.105469 -14.023438 L 15.488281 -14.023438 L 15.488281 -7.882812 C 15.488281 -6.644531 14.847656 -6.050781 13.65625 -6.050781 L 10.355469 -6.050781 C 9.164062 -6.050781 8.523438 -6.644531 8.523438 -7.882812 L 8.523438 -28.777344 C 8.523438 -29.96875 9.121094 -30.609375 10.355469 -30.609375 L 13.65625 -30.609375 C 14.847656 -30.609375 15.488281 -29.96875 15.488281 -28.777344 L 15.488281 -25.296875 C 15.488281 -24.835938 15.71875 -24.5625 16.222656 -24.5625 L 20.804688 -24.5625 C 21.261719 -24.5625 21.539062 -24.835938 21.539062 -25.296875 L 21.539062 -30.0625 C 21.539062 -34.367188 19.199219 -36.660156 14.9375 -36.660156 L 8.890625 -36.660156 C 4.582031 -36.660156 2.292969 -34.367188 2.292969 -30.0625 Z M 2.292969 -6.597656 "/></g></g></g><g fill="#ffffff" fill-opacity="1"><g transform="translate(246.762626, 227.920648)"><g><path d="M 20.574219 -35.925781 C 20.574219 -36.386719 20.390625 -36.660156 19.84375 -36.660156 L 2.980469 -36.660156 C 2.566406 -36.660156 2.292969 -36.386719 2.292969 -35.925781 L 2.292969 -0.734375 C 2.292969 -0.273438 2.566406 0 2.980469 0 L 19.84375 0 C 20.390625 0 20.574219 -0.273438 20.574219 -0.734375 L 20.574219 -5.316406 C 20.574219 -5.820312 20.390625 -6.050781 19.84375 -6.050781 L 8.386719 -6.050781 L 8.386719 -15.304688 L 17.136719 -15.304688 C 17.597656 -15.304688 17.871094 -15.582031 17.871094 -16.085938 L 17.871094 -20.621094 C 17.871094 -21.125 17.597656 -21.398438 17.136719 -21.398438 L 8.386719 -21.398438 L 8.386719 -30.566406 L 19.84375 -30.566406 C 20.390625 -30.566406 20.574219 -30.886719 20.574219 -31.34375 Z M 20.574219 -35.925781 "/></g></g></g><g fill="#ffffff" fill-opacity="1"><g transform="translate(269.626981, 227.920648)"><g><path d="M 16.359375 -36.660156 C 15.855469 -36.660156 15.625 -36.386719 15.625 -35.925781 L 15.625 -16.589844 L 15.351562 -16.589844 L 8.386719 -36.0625 C 8.25 -36.476562 7.972656 -36.660156 7.5625 -36.660156 L 3.023438 -36.660156 C 2.566406 -36.660156 2.292969 -36.386719 2.292969 -35.925781 L 2.292969 -0.734375 C 2.292969 -0.273438 2.566406 0 3.023438 0 L 7.789062 0 C 8.292969 0 8.523438 -0.273438 8.523438 -0.734375 L 8.523438 -20.164062 L 8.753906 -20.164062 L 15.765625 -0.597656 C 15.902344 -0.183594 16.175781 0 16.589844 0 L 21.125 0 C 21.582031 0 21.859375 -0.273438 21.859375 -0.734375 L 21.859375 -35.925781 C 21.859375 -36.386719 21.582031 -36.660156 21.125 -36.660156 Z M 16.359375 -36.660156 "/></g></g></g><g fill="#ffffff" fill-opacity="1"><g transform="translate(293.774311, 227.920648)"><g><path d="M 20.667969 -30.0625 C 20.667969 -34.367188 18.328125 -36.660156 14.066406 -36.660156 L 8.9375 -36.660156 C 4.628906 -36.660156 2.292969 -34.367188 2.292969 -30.0625 L 2.292969 -6.597656 C 2.292969 -2.292969 4.628906 0 8.9375 0 L 14.066406 0 C 18.328125 0 20.667969 -2.292969 20.667969 -6.597656 L 20.667969 -11.546875 C 20.667969 -12.007812 20.390625 -12.28125 19.933594 -12.28125 L 15.351562 -12.28125 C 14.847656 -12.28125 14.617188 -12.007812 14.617188 -11.546875 L 14.617188 -7.882812 C 14.617188 -6.644531 13.976562 -6.050781 12.785156 -6.050781 L 10.402344 -6.050781 C 9.210938 -6.050781 8.570312 -6.644531 8.570312 -7.882812 L 8.570312 -28.777344 C 8.570312 -29.96875 9.164062 -30.609375 10.402344 -30.609375 L 12.785156 -30.609375 C 13.976562 -30.609375 14.617188 -29.96875 14.617188 -28.777344 L 14.617188 -25.113281 C 14.617188 -24.652344 14.847656 -24.378906 15.351562 -24.378906 L 19.933594 -24.378906 C 20.390625 -24.378906 20.667969 -24.652344 20.667969 -25.113281 Z M 20.667969 -30.0625 "/></g></g></g><g fill="#ffffff" fill-opacity="1"><g transform="translate(316.730311, 227.920648)"><g><path d="M 18.695312 -36.660156 C 18.148438 -36.660156 17.824219 -36.429688 17.644531 -35.925781 L 12.511719 -22.773438 L 7.378906 -35.925781 C 7.195312 -36.429688 6.875 -36.660156 6.324219 -36.660156 L 1.742188 -36.660156 C 1.054688 -36.660156 0.734375 -36.246094 1.007812 -35.605469 L 9.394531 -15.214844 L 9.394531 -0.917969 C 9.394531 -0.320312 9.714844 0 10.3125 0 L 14.710938 0 C 15.304688 0 15.625 -0.320312 15.625 -0.917969 L 15.625 -15.214844 L 24.011719 -35.605469 C 24.289062 -36.246094 23.964844 -36.660156 23.277344 -36.660156 Z M 18.695312 -36.660156 "/></g></g></g></svg>