<?xml version="1.0" encoding="UTF-8"?>
<svg version="1.1" xmlns="http://www.w3.org/2000/svg" width="432" height="190">
<path d="M0 0 C0.97564407 -0.00622879 1.95128815 -0.01245758 2.95649719 -0.01887512 C4.54073738 -0.0050605 4.54073738 -0.0050605 6.15698242 0.0090332 C7.79880745 0.00828545 7.79880745 0.00828545 9.47380066 0.00752258 C11.7981446 0.00986629 14.12249093 0.01961211 16.44677734 0.03613281 C19.96044378 0.05946904 23.47333765 0.0567275 26.98706055 0.05004883 C63.40395449 0.0954886 63.40395449 0.0954886 76.18823242 12.09887695 C83.69004525 20.57665378 85.71602141 31.06702159 85.51245117 42.05981445 C84.3891373 53.96694153 77.98894465 62.33985209 69.12963867 69.8293457 C67.18266952 71.38613278 65.2037116 72.88953174 63.19995117 74.37231445 C69.36351877 83.67783083 75.60877645 92.92123438 81.94995117 102.10668945 C86.20982006 108.28941582 86.20982006 108.28941582 85.88745117 110.99731445 C85.19995117 113.37231445 85.19995117 113.37231445 84.19995117 114.37231445 C80.29066213 114.65386517 76.36816532 114.60417457 72.44995117 114.62231445 C71.35166992 114.64293945 70.25338867 114.66356445 69.12182617 114.68481445 C67.52854492 114.69254883 67.52854492 114.69254883 65.90307617 114.70043945 C64.93015625 114.70978516 63.95723633 114.71913086 62.95483398 114.72875977 C58.64246894 114.1707969 56.04153447 112.35164193 53.24291992 109.0949707 C52.63061523 108.21711914 52.01831055 107.33926758 51.38745117 106.43481445 C50.70295898 105.45899414 50.0184668 104.48317383 49.31323242 103.4777832 C45.90361266 98.46734382 42.53531532 93.43242965 39.19995117 88.37231445 C38.68529297 87.73447021 38.17063477 87.09662598 37.64038086 86.43945312 C32.74036802 80.03915545 32.39238129 74.84032159 32.69995117 66.93481445 C32.71026367 65.84749023 32.72057617 64.76016602 32.73120117 63.63989258 C32.88965355 55.68261207 32.88965355 55.68261207 35.19995117 53.37231445 C38.434855 52.77652725 41.67188017 52.41609018 44.93823242 52.0324707 C49.26567183 51.1566177 51.95299482 49.69036919 54.98120117 46.48950195 C57.20029142 42.6345439 56.9250355 38.66860853 56.19995117 34.37231445 C54.53638645 31.01780123 52.29822383 28.91448339 48.91015625 27.24194336 C45.84773366 26.25929772 43.23713499 26.05321644 40.02416992 25.95825195 C38.86723633 25.91958008 37.71030273 25.8809082 36.51831055 25.84106445 C35.32012695 25.81012695 34.12194336 25.77918945 32.88745117 25.74731445 C31.66993164 25.70864258 30.45241211 25.6699707 29.19799805 25.63012695 C26.19879889 25.53603443 23.19960295 25.45039236 20.19995117 25.37231445 C20.20661301 26.44306717 20.21327484 27.51381989 20.22013855 28.61701965 C20.28089342 38.6966119 20.32589673 48.77616711 20.35538769 58.85590076 C20.37105886 64.03828868 20.39232365 69.22052904 20.42626953 74.40283203 C20.45881117 79.40191286 20.47679324 84.40085158 20.4845829 89.40003014 C20.49013576 91.30946783 20.50097885 93.21889755 20.51714134 95.12827492 C20.53884663 97.79809137 20.54192101 100.46731687 20.54052734 103.13720703 C20.55131317 103.93058472 20.562099 104.7239624 20.57321167 105.54138184 C20.54297907 110.87638448 20.54297907 110.87638448 18.82319641 113.36274719 C16.55527258 114.77326828 14.86028424 114.7606017 12.19995117 114.77075195 C11.23057617 114.77461914 10.26120117 114.77848633 9.26245117 114.7824707 C8.25182617 114.77086914 7.24120117 114.75926758 6.19995117 114.74731445 C5.18932617 114.75891602 4.17870117 114.77051758 3.13745117 114.7824707 C2.16807617 114.77860352 1.19870117 114.77473633 0.19995117 114.77075195 C-0.68692383 114.76736816 -1.57379883 114.76398438 -2.48754883 114.76049805 C-5.32324049 114.28448984 -6.04114344 113.60816129 -7.80004883 111.37231445 C-8.17757225 109.32487488 -8.17757225 109.32487488 -8.18099976 106.93164062 C-8.18945923 106.02312347 -8.1979187 105.11460632 -8.20663452 104.17855835 C-8.20056183 103.18417755 -8.19448914 102.18979675 -8.18823242 101.1652832 C-8.19348938 100.11627838 -8.19874634 99.06727356 -8.2041626 97.98648071 C-8.21739196 94.51077488 -8.20861387 91.03552513 -8.19848633 87.55981445 C-8.20050621 85.14990145 -8.20341693 82.73998903 -8.20718384 80.33007812 C-8.21161118 75.27606393 -8.20516278 70.22220864 -8.19116211 65.16821289 C-8.1740702 58.68122204 -8.18390916 52.19460352 -8.2018795 45.70762634 C-8.21270614 40.730318 -8.20927611 35.75309833 -8.20149612 30.77578735 C-8.19949103 28.38351396 -8.20196419 25.99123258 -8.20893478 23.59896851 C-8.21653067 20.25887648 -8.20497065 16.91939231 -8.18823242 13.5793457 C-8.19430511 12.5849649 -8.20037781 11.59058411 -8.20663452 10.56607056 C-8.19817505 9.65755341 -8.18971558 8.74903625 -8.18099976 7.81298828 C-8.17986868 7.02322098 -8.1787376 6.23345367 -8.17757225 5.41975403 C-7.31429047 0.73787955 -4.30458328 -0.00316106 0 0 Z " fill="#333332" transform="translate(227.800048828125,9.627685546875)"/>
<path d="M0 0 C1.1348156 -0.00810448 1.1348156 -0.00810448 2.29255676 -0.01637268 C4.78910642 -0.02886333 7.28450371 -0.01236928 9.78100586 0.00561523 C11.51688192 0.00546027 13.25275834 0.0039717 14.9886322 0.00120544 C18.62441323 -0.00017864 22.2597998 0.0123821 25.89550781 0.03515625 C30.55867138 0.06356224 35.22118058 0.06079804 39.88439274 0.04806614 C43.46774397 0.04111613 47.05094357 0.04889009 50.63427544 0.06132317 C52.35389055 0.06584279 54.0735219 0.06617001 55.7931385 0.06225777 C58.19446399 0.05935159 60.59488277 0.07582225 62.99609375 0.09765625 C63.70838135 0.0931546 64.42066895 0.08865295 65.15454102 0.08401489 C68.05584298 0.12791078 69.97639091 0.17427973 72.37490845 1.89291382 C73.79514771 4.05163 73.80610877 5.52572791 73.79663086 8.09936523 C73.79566406 9.42484375 73.79566406 9.42484375 73.79467773 10.77709961 C73.77856445 11.6968457 73.76245117 12.6165918 73.74584961 13.56420898 C73.74907227 14.48782227 73.75229492 15.41143555 73.75561523 16.36303711 C73.70040134 23.23465725 73.70040134 23.23465725 71.43334961 25.50170898 C69.10482788 25.74221802 69.10482788 25.74221802 66.1574707 25.72875977 C65.05648041 25.7286087 63.95549011 25.72845764 62.82113647 25.728302 C61.62840118 25.71797943 60.43566589 25.70765686 59.20678711 25.69702148 C57.98883453 25.69419159 56.77088196 25.69136169 55.51602173 25.68844604 C51.61336578 25.67722154 47.71093658 25.65211271 43.80834961 25.62670898 C41.16772792 25.61668213 38.52710264 25.60755577 35.88647461 25.59936523 C29.4020118 25.57727476 22.91771919 25.54272933 16.43334961 25.50170898 C16.43334961 31.44170898 16.43334961 37.38170898 16.43334961 43.50170898 C18.64417236 43.48599854 18.64417236 43.48599854 20.8996582 43.4699707 C26.35259587 43.43385107 31.8055229 43.41083784 37.25854492 43.3918457 C39.62151872 43.38176975 41.98448 43.36810869 44.34741211 43.35083008 C47.73806849 43.32665174 51.12856045 43.315242 54.51928711 43.30639648 C55.58077972 43.29607391 56.64227234 43.28575134 57.7359314 43.27511597 C59.20723007 43.27488937 59.20723007 43.27488937 60.70825195 43.2746582 C61.57429047 43.27021698 62.44032898 43.26577576 63.33261108 43.26119995 C65.43334961 43.50170898 65.43334961 43.50170898 67.43334961 45.50170898 C67.69213867 47.53295898 67.69213867 47.53295898 67.69897461 50.00170898 C67.7028418 51.33202148 67.7028418 51.33202148 67.70678711 52.68920898 C67.69905273 53.61733398 67.69131836 54.54545898 67.68334961 55.50170898 C67.69495117 56.89389648 67.69495117 56.89389648 67.70678711 58.31420898 C67.70420898 59.20108398 67.70163086 60.08795898 67.69897461 61.00170898 C67.69671875 61.81639648 67.69446289 62.63108398 67.69213867 63.47045898 C67.43334961 65.50170898 67.43334961 65.50170898 65.43334961 67.50170898 C63.33261108 67.74221802 63.33261108 67.74221802 60.70825195 67.72875977 C59.23695328 67.72853317 59.23695328 67.72853317 57.7359314 67.728302 C56.67443878 67.71797943 55.61294617 67.70765686 54.51928711 67.69702148 C53.4345108 67.69419159 52.3497345 67.69136169 51.23208618 67.68844604 C47.75739648 67.67722476 44.28296179 67.65211661 40.80834961 67.62670898 C38.45679082 67.6166817 36.10522801 67.60755542 33.75366211 67.59936523 C27.98004662 67.57897817 22.20698455 67.53983277 16.43334961 67.50170898 C16.43334961 74.76170898 16.43334961 82.02170898 16.43334961 89.50170898 C18.14433838 89.48599854 19.85532715 89.47028809 21.61816406 89.45410156 C27.26991696 89.40573536 32.92164013 89.37125895 38.5735445 89.34627247 C42.00048184 89.33061325 45.42719538 89.30937095 48.85400391 89.27539062 C52.79318569 89.23657384 56.7322767 89.22200183 60.67163086 89.20874023 C61.90295242 89.19325638 63.13427399 89.17777252 64.40290833 89.16181946 C65.54386459 89.16159286 66.68482086 89.16136627 67.86035156 89.16113281 C68.8662886 89.15447098 69.87222565 89.14780914 70.90864563 89.14094543 C73.43334961 89.50170898 73.43334961 89.50170898 75.25740051 90.89567566 C76.78414672 92.98080442 76.82036273 94.27551866 76.83178711 96.84545898 C76.8356543 97.67948242 76.83952148 98.51350586 76.84350586 99.37280273 C76.8319043 100.2403418 76.82030273 101.10788086 76.80834961 102.00170898 C76.81995117 102.86924805 76.83155273 103.73678711 76.84350586 104.63061523 C76.83963867 105.46463867 76.83577148 106.29866211 76.83178711 107.15795898 C76.82840332 107.91915039 76.82501953 108.6803418 76.8215332 109.46459961 C76.29973592 112.20288675 75.71996286 112.87884926 73.43334961 114.50170898 C70.74328354 114.78739735 68.28656571 114.89107292 65.59716797 114.8581543 C64.40164055 114.86122086 64.40164055 114.86122086 63.18196106 114.86434937 C60.54547237 114.86735938 57.90960779 114.84887496 55.27319336 114.82983398 C53.44381363 114.82677682 51.61443157 114.82490038 49.78504944 114.82415771 C45.95084732 114.81955337 42.11685509 114.80512162 38.28271484 114.78295898 C33.36064368 114.75465659 28.43873778 114.74374562 23.51659298 114.73927689 C19.73944943 114.73512613 15.96233951 114.72531186 12.18521309 114.71340179 C10.36987134 114.70769308 8.55452635 114.70293637 6.73917961 114.69913483 C4.20610714 114.69228266 1.67316709 114.67865569 -0.85986328 114.6628418 C-1.61472015 114.66172394 -2.36957703 114.66060608 -3.14730835 114.65945435 C-8.33726217 114.61640309 -8.33726217 114.61640309 -10.56665039 113.50170898 C-11.49532653 110.71568056 -11.69792058 109.02255896 -11.71382141 106.14369202 C-11.72097672 105.25344833 -11.72813202 104.36320465 -11.73550415 103.44598389 C-11.73819305 102.47187561 -11.74088196 101.49776733 -11.74365234 100.49414062 C-11.75022354 99.46624924 -11.75679474 98.43835785 -11.76356506 97.37931824 C-11.78329754 93.97349986 -11.79495858 90.56772551 -11.80493164 87.16186523 C-11.80900717 86.00015745 -11.8130827 84.83844967 -11.81728172 83.64153862 C-11.83813897 77.49670463 -11.85244406 71.35189298 -11.86181641 65.20703125 C-11.8728998 58.85014677 -11.9073232 52.4936105 -11.94698811 46.1368494 C-11.97308311 41.25645785 -11.98150175 36.37615031 -11.98509789 31.49569511 C-11.9899797 29.15167315 -12.00163868 26.80765532 -12.02013588 24.46370125 C-12.04438278 21.18840686 -12.04358888 17.91402779 -12.03662109 14.63867188 C-12.04943115 13.66658783 -12.06224121 12.69450378 -12.07543945 11.69296265 C-12.02549005 5.26883182 -12.02549005 5.26883182 -10.01019287 1.89950562 C-6.68417573 -0.00309914 -3.72969097 -0.05076784 0 0 Z " fill="#333332" transform="translate(345.566650390625,9.498291015625)"/>
<path d="M0 0 C1.05058594 -0.020625 2.10117188 -0.04125 3.18359375 -0.0625 C4.70919922 -0.07023438 4.70919922 -0.07023438 6.265625 -0.078125 C7.66216309 -0.09214355 7.66216309 -0.09214355 9.08691406 -0.10644531 C12.88802852 0.40232138 15.56371777 1.8548169 18.05737305 4.78759766 C18.56071167 5.65457275 18.56071167 5.65457275 19.07421875 6.5390625 C19.48591309 7.24321289 19.89760742 7.94736328 20.32177734 8.67285156 C20.79309082 9.52331055 21.2644043 10.37376953 21.75 11.25 C22.34377441 12.31959961 22.93754883 13.38919922 23.54931641 14.49121094 C25.23323436 17.55148674 26.88941186 20.62598683 28.53588867 23.70654297 C29.57287219 25.64438281 30.61727426 27.57810324 31.66210938 29.51171875 C32.32336557 30.74455099 32.98418914 31.9776154 33.64453125 33.2109375 C34.53942261 34.87842041 34.53942261 34.87842041 35.45239258 36.57958984 C36.75 39.25 36.75 39.25 36.75 41.25 C37.41 41.25 38.07 41.25 38.75 41.25 C38.98460937 40.445625 39.21921875 39.64125 39.4609375 38.8125 C41.05938373 34.39497587 43.15988505 30.38513097 45.375 26.25 C45.8179541 25.41927979 46.2609082 24.58855957 46.71728516 23.73266602 C48.05488433 21.23480635 49.40172033 18.7421071 50.75 16.25 C51.14123047 15.51894043 51.53246094 14.78788086 51.93554688 14.03466797 C52.98595587 12.07830428 54.05187258 10.13147369 55.125 8.1875 C55.73085937 7.08277344 56.33671875 5.97804688 56.9609375 4.83984375 C58.87118048 2.07457935 59.69820542 1.43506461 62.75 0.25 C66.42744974 -0.16633601 70.11386017 -0.07439273 73.8125 -0.0625 C74.81861328 -0.07861328 75.82472656 -0.09472656 76.86132812 -0.11132812 C77.82619141 -0.11197266 78.79105469 -0.11261719 79.78515625 -0.11328125 C81.10592163 -0.11775269 81.10592163 -0.11775269 82.45336914 -0.12231445 C85.17601755 0.31906312 86.04797917 1.13653231 87.75 3.25 C85.57082509 9.5550794 82.75431799 15.18622664 79.5 21 C78.42985373 22.93557036 77.36090416 24.87180269 76.29296875 26.80859375 C75.72368652 27.83968262 75.1544043 28.87077148 74.56787109 29.93310547 C70.94328146 36.54654554 67.40390947 43.20595783 63.8536377 49.85949707 C62.93551599 51.57979612 62.0165952 53.29966862 61.09765625 55.01953125 C60.57179932 56.00542236 60.04594238 56.99131348 59.50415039 58.00708008 C58.53530372 59.79819913 57.54135624 61.57870846 56.45007324 63.29797363 C52.94062955 69.00983762 52.04291934 73.34215458 52.1484375 79.9921875 C52.13642807 81.32746994 52.13642807 81.32746994 52.12417603 82.68972778 C52.10129225 85.50196215 52.11051372 88.31272941 52.125 91.125 C52.12884844 93.95841508 52.12544842 96.79119875 52.10440063 99.62454224 C52.09231022 101.37961018 52.09498291 103.13485665 52.11410522 104.88986206 C52.08668835 110.82648333 52.08668835 110.82648333 50.37919617 112.97431946 C48.06963852 114.78273137 46.40258331 114.62254636 43.49609375 114.61328125 C42.47708984 114.61263672 41.45808594 114.61199219 40.40820312 114.61132812 C39.34537109 114.59521484 38.28253906 114.57910156 37.1875 114.5625 C36.12080078 114.56572266 35.05410156 114.56894531 33.95507812 114.57226562 C26.01696528 114.51696528 26.01696528 114.51696528 23.75 112.25 C23.65028862 109.33884471 23.66580252 106.51185065 23.7578125 103.60546875 C24.447811 76.03491563 24.447811 76.03491563 12.58251953 51.84277344 C9.31412563 47.21842715 6.71483964 42.19864809 4.02838135 37.22244263 C2.46129284 34.32647297 0.86487681 31.44687975 -0.73046875 28.56640625 C-1.32778809 27.48762207 -1.92510742 26.40883789 -2.54052734 25.29736328 C-4.07491144 22.56211873 -5.64258084 19.85213165 -7.23828125 17.15234375 C-7.66987549 16.41540283 -8.10146973 15.67846191 -8.54614258 14.91918945 C-9.31888524 13.60704702 -10.10297357 12.30148345 -10.90112305 11.00463867 C-12.51496201 8.2500974 -13.27877544 6.62510838 -13.03125 3.3984375 C-11.13163694 -1.8254984 -4.79068376 0.02317138 0 0 Z " fill="#333332" transform="translate(119.25,9.75)"/>
<path d="M0 0 C0.81491913 -0.00365067 1.62983826 -0.00730133 2.4694519 -0.01106262 C5.16604381 -0.01917563 7.86203622 -0.00555195 10.55859375 0.0090332 C12.43041992 0.00955172 14.30224664 0.00903434 16.17407227 0.00752258 C20.09822716 0.00761234 24.02217675 0.01804886 27.94628906 0.03613281 C32.9804191 0.05882007 38.01424905 0.05936445 43.04841614 0.05261517 C46.91396764 0.04927625 50.77945052 0.05590383 54.64498901 0.0657444 C56.50136964 0.06959802 58.3577579 0.07074395 60.21414185 0.06915855 C62.80697209 0.06878836 65.39941531 0.08139515 67.9921875 0.09765625 C68.76215057 0.09517883 69.53211365 0.09270142 70.32540894 0.09014893 C74.08953751 0.12789161 75.78406622 0.23096277 78.99609375 2.37231445 C79.3684082 4.49536133 79.3684082 4.49536133 79.359375 7.09106445 C79.3584082 8.48905273 79.3584082 8.48905273 79.35742188 9.9152832 C79.34130859 10.89110352 79.32519531 11.86692383 79.30859375 12.87231445 C79.31181641 13.84813477 79.31503906 14.82395508 79.31835938 15.8293457 C79.26300904 23.10539917 79.26300904 23.10539917 76.99609375 25.37231445 C74.10693359 25.59936523 74.10693359 25.59936523 70.45703125 25.56762695 C68.50410156 25.55795898 68.50410156 25.55795898 66.51171875 25.5480957 C65.1315078 25.53138375 63.75129946 25.51445384 62.37109375 25.49731445 C60.98307923 25.48728451 59.59505786 25.47815868 58.20703125 25.4699707 C54.80321349 25.44633308 51.39973869 25.41338312 47.99609375 25.37231445 C48.00275558 26.45781586 48.00941742 27.54331726 48.01628113 28.66171265 C48.07700385 38.87406226 48.12202378 49.08637542 48.15153027 59.29886436 C48.16720963 64.54966103 48.18848922 69.80031238 48.22241211 75.05102539 C48.25492472 80.11493998 48.27292964 85.17871449 48.28072548 90.24272537 C48.28628359 92.17810905 48.2971367 94.11348476 48.31328392 96.04880905 C48.33495073 98.75235525 48.33806522 101.455317 48.33666992 104.15893555 C48.34745575 104.96525925 48.35824158 105.77158295 48.36935425 106.6023407 C48.3568573 108.82894897 48.3568573 108.82894897 47.99609375 112.37231445 C43.52472713 115.35322553 39.25667963 114.74060452 33.99609375 114.74731445 C32.98546875 114.77180664 31.97484375 114.79629883 30.93359375 114.8215332 C29.96421875 114.82540039 28.99484375 114.82926758 27.99609375 114.83325195 C27.10921875 114.84146973 26.22234375 114.8496875 25.30859375 114.8581543 C22.99609375 114.37231445 22.99609375 114.37231445 21.37284851 112.85800171 C19.42418243 109.33974662 19.60139914 106.03133402 19.65551758 102.11547852 C19.65486046 100.87102211 19.65486046 100.87102211 19.65419006 99.60142517 C19.65627755 96.86335594 19.67960656 94.12590152 19.703125 91.38793945 C19.7087211 89.48793879 19.71299113 87.58793379 19.71598816 85.68792725 C19.72743582 80.69012475 19.7569024 75.6925843 19.7901001 70.69488525 C19.82080263 65.59390813 19.83449389 60.49288862 19.84960938 55.3918457 C19.88177211 45.38522023 19.93296759 35.37878914 19.99609375 25.37231445 C18.69406006 25.3880249 18.69406006 25.3880249 17.36572266 25.40405273 C14.14909847 25.43811162 10.93256608 25.46320212 7.71582031 25.48217773 C6.32288594 25.49224323 4.92997273 25.50589679 3.53710938 25.52319336 C1.53655015 25.54741665 -0.4641624 25.55772259 -2.46484375 25.56762695 C-3.66931152 25.57810059 -4.8737793 25.58857422 -6.11474609 25.59936523 C-9.00390625 25.37231445 -9.00390625 25.37231445 -11.00390625 23.37231445 C-11.45260286 20.07987841 -11.32798867 16.75433702 -11.31640625 13.43481445 C-11.33251953 12.51506836 -11.34863281 11.59532227 -11.36523438 10.64770508 C-11.36587891 9.76405273 -11.36652344 8.88040039 -11.3671875 7.9699707 C-11.37016846 7.16052002 -11.37314941 6.35106934 -11.3762207 5.51708984 C-11.00390625 3.37231445 -11.00390625 3.37231445 -9.98088074 1.76153564 C-6.89451974 -0.40725213 -3.63699395 -0.03610592 0 0 Z " fill="#333332" transform="translate(21.00390625,9.627685546875)"/>
<path d="M0 0 C4.69626464 0.05344256 4.69626464 0.05344256 6.84765625 2.03125 C8.15603583 4.15158217 9.20650918 6.30036097 10.25 8.5625 C11.17966454 10.19199535 12.11705382 11.8171103 13.0625 13.4375 C15.25 17.30096154 15.25 17.30096154 15.25 19.5625 C15.91 19.5625 16.57 19.5625 17.25 19.5625 C17.5078125 18.71429688 17.765625 17.86609375 18.03125 16.9921875 C20.18789856 10.92315727 22.98844515 5.39273021 27.25 0.5625 C30.81044148 -0.58503797 33.66148627 -0.43081179 37.25 0.5625 C38.82300328 2.13550328 38.37725504 3.69934045 38.37939453 5.8828125 C38.38254669 6.80046387 38.38569885 7.71811523 38.38894653 8.66357422 C38.3869223 9.66146973 38.38489807 10.65936523 38.3828125 11.6875 C38.38376923 12.70473145 38.38472595 13.72196289 38.38571167 14.77001953 C38.38639361 16.92545636 38.38453835 19.08089522 38.38037109 21.23632812 C38.37502305 24.54822371 38.38031563 27.85998367 38.38671875 31.171875 C38.38605797 33.26041697 38.38477681 35.34895885 38.3828125 37.4375 C38.38483673 38.43539551 38.38686096 39.43329102 38.38894653 40.46142578 C38.38421829 41.83790283 38.38421829 41.83790283 38.37939453 43.2421875 C38.37859894 44.05413574 38.37780334 44.86608398 38.37698364 45.70263672 C38.25 47.5625 38.25 47.5625 37.25 48.5625 C35.75261876 48.6604057 34.25057108 48.69224864 32.75 48.6875 C31.9353125 48.69007813 31.120625 48.69265625 30.28125 48.6953125 C28.25 48.5625 28.25 48.5625 27.25 47.5625 C27.09259395 45.85686222 26.99906608 44.14522756 26.93359375 42.43359375 C26.89169922 41.39912109 26.84980469 40.36464844 26.80664062 39.29882812 C26.76732422 38.21021484 26.72800781 37.12160156 26.6875 36 C26.64431641 34.90751953 26.60113281 33.81503906 26.55664062 32.68945312 C26.45018042 29.98063232 26.34955193 27.27158349 26.25 24.5625 C23.28 30.0075 23.28 30.0075 20.25 35.5625 C17.61 35.5625 14.97 35.5625 12.25 35.5625 C10.27 31.9325 8.29 28.3025 6.25 24.5625 C6.18941406 26.21121094 6.12882812 27.85992187 6.06640625 29.55859375 C5.98202063 31.705739 5.89737165 33.85287391 5.8125 36 C5.77318359 37.08861328 5.73386719 38.17722656 5.69335938 39.29882812 C5.65146484 40.33330078 5.60957031 41.36777344 5.56640625 42.43359375 C5.51141968 43.87109985 5.51141968 43.87109985 5.45532227 45.33764648 C5.25 47.5625 5.25 47.5625 4.25 48.5625 C2.75261876 48.6604057 1.25057108 48.69224864 -0.25 48.6875 C-1.0646875 48.69007813 -1.879375 48.69265625 -2.71875 48.6953125 C-4.75 48.5625 -4.75 48.5625 -5.75 47.5625 C-5.84813987 46.12509647 -5.8779828 44.68293673 -5.87939453 43.2421875 C-5.88254669 42.32453613 -5.88569885 41.40688477 -5.88894653 40.46142578 C-5.8869223 39.46353027 -5.88489807 38.46563477 -5.8828125 37.4375 C-5.88376923 36.42026855 -5.88472595 35.40303711 -5.88571167 34.35498047 C-5.88639361 32.19954364 -5.88453835 30.04410478 -5.88037109 27.88867188 C-5.87502305 24.57677629 -5.88031563 21.26501633 -5.88671875 17.953125 C-5.88605797 15.86458303 -5.88477681 13.77604115 -5.8828125 11.6875 C-5.88483673 10.68960449 -5.88686096 9.69170898 -5.88894653 8.66357422 C-5.88579437 7.74592285 -5.88264221 6.82827148 -5.87939453 5.8828125 C-5.87859894 5.07086426 -5.87780334 4.25891602 -5.87698364 3.42236328 C-5.62652333 -0.24599854 -3.19984659 0.22247454 0 0 Z " fill="#EE9519" transform="translate(60.75,130.4375)"/>
<path d="M0 0 C3.09450438 0.03415081 4.69749818 0.06061835 7.09277344 2.07128906 C8.64166644 4.20894865 9.92643313 6.37220684 11.1796875 8.6953125 C11.62570312 9.45585937 12.07171875 10.21640625 12.53125 11 C13.40238236 12.48604932 14.26064757 13.97973282 15.10449219 15.48144531 C16.70926894 18.27446198 18.48138009 20.91591613 20.3046875 23.5703125 C20.32974365 22.909104 20.3547998 22.24789551 20.38061523 21.56665039 C20.49621852 18.58848945 20.61910504 15.6106733 20.7421875 12.6328125 C20.78150391 11.59189453 20.82082031 10.55097656 20.86132812 9.47851562 C20.90322266 8.48916016 20.94511719 7.49980469 20.98828125 6.48046875 C21.02493896 5.56402588 21.06159668 4.64758301 21.09936523 3.70336914 C21.3046875 1.5703125 21.3046875 1.5703125 22.3046875 0.5703125 C23.96897801 0.47207313 25.63750681 0.44057619 27.3046875 0.4453125 C28.6659375 0.44144531 28.6659375 0.44144531 30.0546875 0.4375 C32.3046875 0.5703125 32.3046875 0.5703125 33.3046875 1.5703125 C33.40790948 2.97156587 33.4431818 4.3779252 33.44995117 5.78295898 C33.45633102 6.67736191 33.46271088 7.57176483 33.46928406 8.49327087 C33.47039688 9.46615555 33.4715097 10.43904022 33.47265625 11.44140625 C33.47764885 12.93040184 33.47764885 12.93040184 33.48274231 14.44947815 C33.4878159 16.553635 33.4901505 18.65779993 33.48999023 20.76196289 C33.4921758 23.99053133 33.51032449 27.21875777 33.52929688 30.44726562 C33.53223082 32.48697799 33.53421561 34.52669199 33.53515625 36.56640625 C33.54234177 37.53726669 33.54952728 38.50812714 33.55693054 39.50840759 C33.55385391 40.40596268 33.55077728 41.30351776 33.54760742 42.22827148 C33.54903244 43.02023422 33.55045746 43.81219696 33.55192566 44.62815857 C33.3046875 46.5703125 33.3046875 46.5703125 31.3046875 48.5703125 C25.72846799 49.10994665 25.72846799 49.10994665 23.3046875 48.5703125 C20.34829469 45.93373073 18.29454465 43.20528766 16.2890625 39.8046875 C15.76054687 38.91523438 15.23203125 38.02578125 14.6875 37.109375 C14.14867187 36.18898437 13.60984375 35.26859375 13.0546875 34.3203125 C12.50039063 33.38445312 11.94609375 32.44859375 11.375 31.484375 C10.01284084 29.18279574 8.65629874 26.8780965 7.3046875 24.5703125 C7.27963135 25.26181396 7.2545752 25.95331543 7.22875977 26.66577148 C7.11316589 29.77999116 6.99027508 32.89388039 6.8671875 36.0078125 C6.82787109 37.09642578 6.78855469 38.18503906 6.74804688 39.30664062 C6.70615234 40.34111328 6.66425781 41.37558594 6.62109375 42.44140625 C6.56610718 43.87891235 6.56610718 43.87891235 6.51000977 45.34545898 C6.3046875 47.5703125 6.3046875 47.5703125 5.3046875 48.5703125 C3.64039699 48.66855187 1.97186819 48.70004881 0.3046875 48.6953125 C-1.0565625 48.69917969 -1.0565625 48.69917969 -2.4453125 48.703125 C-4.6953125 48.5703125 -4.6953125 48.5703125 -5.6953125 47.5703125 C-5.79345237 46.13290897 -5.8232953 44.69074923 -5.82470703 43.25 C-5.82785919 42.33234863 -5.83101135 41.41469727 -5.83425903 40.46923828 C-5.8322348 39.47134277 -5.83021057 38.47344727 -5.828125 37.4453125 C-5.82908173 36.42808105 -5.83003845 35.41084961 -5.83102417 34.36279297 C-5.83170611 32.20735614 -5.82985085 30.05191728 -5.82568359 27.89648438 C-5.82033555 24.58458879 -5.82562813 21.27282883 -5.83203125 17.9609375 C-5.83137047 15.87239553 -5.83008931 13.78385365 -5.828125 11.6953125 C-5.83014923 10.69741699 -5.83217346 9.69952148 -5.83425903 8.67138672 C-5.83110687 7.75373535 -5.82795471 6.83608398 -5.82470703 5.890625 C-5.82391144 5.07867676 -5.82311584 4.26672852 -5.82229614 3.43017578 C-5.57326227 -0.21729359 -3.18855735 0.22788159 0 0 Z " fill="#EE9519" transform="translate(296.6953125,130.4296875)"/>
<path d="M0 0 C0.99966797 -0.00257813 1.99933594 -0.00515625 3.02929688 -0.0078125 C4.07794922 -0.00007812 5.12660156 0.00765625 6.20703125 0.015625 C7.23634766 0.00789062 8.26566406 0.00015625 9.32617188 -0.0078125 C22.36687454 0.02560378 22.36687454 0.02560378 27.83203125 4.640625 C31.79309903 9.39390633 32.40768968 12.76823224 32.2734375 18.86328125 C31.74165046 23.89480476 28.71764564 27.04468666 25.01953125 30.265625 C24.35953125 30.265625 23.69953125 30.265625 23.01953125 30.265625 C23.57382813 31.07386719 24.128125 31.88210937 24.69921875 32.71484375 C25.42367187 33.78347656 26.148125 34.85210937 26.89453125 35.953125 C27.61382812 37.00886719 28.333125 38.06460938 29.07421875 39.15234375 C30.75071563 41.83541206 31.97202914 44.29402692 33.01953125 47.265625 C31.3073912 48.97776505 29.2391384 48.71813347 26.89453125 48.890625 C23.32690241 48.8721159 21.63765768 48.78354514 18.875 46.46875 C17.0860183 44.14580208 15.54243644 41.76931424 14.01953125 39.265625 C13.21515625 38.29625 12.41078125 37.326875 11.58203125 36.328125 C9.36272292 31.97828067 9.67867595 28.05653555 10.01953125 23.265625 C10.58542969 23.06066406 11.15132812 22.85570312 11.734375 22.64453125 C12.46785156 22.37511719 13.20132813 22.10570312 13.95703125 21.828125 C14.68792969 21.56128906 15.41882813 21.29445312 16.171875 21.01953125 C18.00258803 20.41175552 18.00258803 20.41175552 19.01953125 19.265625 C19.06033908 17.26604136 19.06207481 15.26517246 19.01953125 13.265625 C16.3177007 11.91470972 13.90144919 11.92704442 10.89453125 11.703125 C9.25097656 11.57744141 9.25097656 11.57744141 7.57421875 11.44921875 C6.73117188 11.38863281 5.888125 11.32804688 5.01953125 11.265625 C5.02476807 12.35093506 5.03000488 13.43624512 5.03540039 14.55444336 C5.05344961 18.56680482 5.06496296 22.57916267 5.07446289 26.59155273 C5.07950329 28.33081668 5.08633555 30.07007636 5.0949707 31.80932617 C5.10704917 34.30388437 5.11276233 36.79838673 5.1171875 39.29296875 C5.12234879 40.07526352 5.12751007 40.85755829 5.13282776 41.66355896 C5.13302351 43.53129614 5.08152819 45.39891704 5.01953125 47.265625 C3.43059053 48.85456572 1.77151701 48.43560911 -0.41796875 48.453125 C-1.22105469 48.46730469 -2.02414063 48.48148438 -2.8515625 48.49609375 C-4.98046875 48.265625 -4.98046875 48.265625 -6.98046875 46.265625 C-7.23443604 44.36816406 -7.23443604 44.36816406 -7.23925781 42.03125 C-7.24556213 41.15694336 -7.25186646 40.28263672 -7.25836182 39.38183594 C-7.25431335 38.43598633 -7.25026489 37.49013672 -7.24609375 36.515625 C-7.2480072 35.54657227 -7.24992065 34.57751953 -7.25189209 33.57910156 C-7.25325454 31.52799215 -7.24955393 29.47687414 -7.24121094 27.42578125 C-7.23051234 24.27844961 -7.24110429 21.1316888 -7.25390625 17.984375 C-7.25258467 15.9947904 -7.2500223 14.00520616 -7.24609375 12.015625 C-7.25014221 11.06977539 -7.25419067 10.12392578 -7.25836182 9.14941406 C-7.2520575 8.27510742 -7.24575317 7.40080078 -7.23925781 6.5 C-7.23766663 5.72881836 -7.23607544 4.95763672 -7.23443604 4.16308594 C-6.64776605 -0.22009033 -3.68458935 0.00914858 0 0 Z " fill="#EE9519" transform="translate(159.98046875,130.734375)"/>
<path d="M0 0 C1.08946678 -0.0049926 1.08946678 -0.0049926 2.20094299 -0.01008606 C3.74015671 -0.015158 5.27938145 -0.0174943 6.81860352 -0.01733398 C9.17808096 -0.01951891 11.53708986 -0.0376669 13.89648438 -0.05664062 C15.38932131 -0.05957477 16.88216048 -0.06155942 18.375 -0.0625 C19.43756264 -0.07327827 19.43756264 -0.07327827 20.52159119 -0.08427429 C25.52508288 -0.06085462 25.52508288 -0.06085462 27.75390625 2.16796875 C28.09261593 8.4905494 28.09261593 8.4905494 26.75390625 11.16796875 C19.16390625 11.16796875 11.57390625 11.16796875 3.75390625 11.16796875 C3.75390625 13.47796875 3.75390625 15.78796875 3.75390625 18.16796875 C4.35452881 18.16273193 4.95515137 18.15749512 5.57397461 18.15209961 C8.27977463 18.13138861 10.98555802 18.1183275 13.69140625 18.10546875 C14.63693359 18.09708984 15.58246094 18.08871094 16.55664062 18.08007812 C17.90532227 18.07524414 17.90532227 18.07524414 19.28125 18.0703125 C20.53023071 18.06245728 20.53023071 18.06245728 21.80444336 18.05444336 C23.75390625 18.16796875 23.75390625 18.16796875 24.75390625 19.16796875 C24.75390625 22.13796875 24.75390625 25.10796875 24.75390625 28.16796875 C17.82390625 28.16796875 10.89390625 28.16796875 3.75390625 28.16796875 C3.75390625 31.13796875 3.75390625 34.10796875 3.75390625 37.16796875 C4.47570068 37.16273193 5.19749512 37.15749512 5.94116211 37.15209961 C9.19123474 37.13139517 12.44129353 37.11832957 15.69140625 37.10546875 C16.82771484 37.09708984 17.96402344 37.08871094 19.13476562 37.08007812 C20.21435547 37.07685547 21.29394531 37.07363281 22.40625 37.0703125 C23.9065979 37.06245728 23.9065979 37.06245728 25.43725586 37.05444336 C27.75390625 37.16796875 27.75390625 37.16796875 28.75390625 38.16796875 C29.0270544 43.90407986 29.0270544 43.90407986 28.75390625 46.16796875 C26.25648222 48.66539278 24.77673014 48.40473339 21.36912537 48.42021179 C20.27375206 48.40943352 20.27375206 48.40943352 19.15625 48.3984375 C18.03205406 48.39775017 18.03205406 48.39775017 16.88514709 48.39704895 C15.30061256 48.39402686 13.71608099 48.38614181 12.1315918 48.3737793 C9.69764767 48.35551558 7.26408363 48.35326964 4.83007812 48.35351562 C3.29296544 48.34860076 1.75585535 48.34277257 0.21875 48.3359375 C-0.5135231 48.33482468 -1.2457962 48.33371185 -2.0002594 48.33256531 C-7.13004137 48.28402113 -7.13004137 48.28402113 -8.24609375 47.16796875 C-8.34423362 45.73056522 -8.37407655 44.28840548 -8.37548828 42.84765625 C-8.37864044 41.93000488 -8.3817926 41.01235352 -8.38504028 40.06689453 C-8.38301605 39.06899902 -8.38099182 38.07110352 -8.37890625 37.04296875 C-8.37986298 36.0257373 -8.3808197 35.00850586 -8.38180542 33.96044922 C-8.38248736 31.80501239 -8.3806321 29.64957353 -8.37646484 27.49414062 C-8.3711168 24.18224504 -8.37640938 20.87048508 -8.3828125 17.55859375 C-8.38215172 15.47005178 -8.38087056 13.3815099 -8.37890625 11.29296875 C-8.38093048 10.29507324 -8.38295471 9.29717773 -8.38504028 8.26904297 C-8.38188812 7.3513916 -8.37873596 6.43374023 -8.37548828 5.48828125 C-8.37469269 4.67633301 -8.37389709 3.86438477 -8.37307739 3.02783203 C-8.07005314 -1.41040646 -3.43983187 0.00538841 0 0 Z " fill="#EE9519" transform="translate(18.24609375,130.83203125)"/>
<path d="M0 0 C3.1841528 3.26181506 4.97073985 5.53699241 5.0625 10.125 C5.041875 11.07375 5.02125 12.0225 5 13 C1.37 13 -2.26 13 -6 13 C-6.66 11.68 -7.32 10.36 -8 9 C-11.10861908 7.44569046 -14.65824747 7.11327755 -18 8 C-21.60977335 12.14757254 -21.45556409 16.34821305 -21.375 21.5625 C-21.38660156 22.31724609 -21.39820313 23.07199219 -21.41015625 23.84960938 C-21.39288024 27.11765438 -21.21739628 29.58278139 -19.6953125 32.50390625 C-17.93481907 34.34804215 -17.93481907 34.34804215 -14.5 34.375 C-10.89063517 34.26140863 -10.89063517 34.26140863 -8 32 C-7.27617533 29.94074861 -7.27617533 29.94074861 -7 28 C-9.64 28 -12.28 28 -15 28 C-15 24.7 -15 21.4 -15 18 C-8.4 18 -1.8 18 5 18 C5.061875 20.536875 5.12375 23.07375 5.1875 25.6875 C5.22846802 26.87218872 5.22846802 26.87218872 5.27026367 28.08081055 C5.32382232 32.63559889 4.78746983 35.3926861 2 39 C-2.78567223 43.67690695 -6.86919125 45.9511869 -13.64453125 46.03125 C-21.17711436 45.61907035 -26.06765041 44.08668378 -31.375 38.5 C-34.83353974 33.17916963 -34.21778383 27.33676065 -34.25 21.1875 C-34.270625 20.21490234 -34.29125 19.24230469 -34.3125 18.24023438 C-34.35288557 10.78404894 -33.65037044 5.71060613 -28.25 0.1875 C-19.04497138 -6.00819234 -9.38095609 -5.16367672 0 0 Z " fill="#EE9519" transform="translate(233,134)"/>
<path d="M0 0 C0.71353638 0.00202423 1.42707275 0.00404846 2.16223145 0.00613403 C2.89091431 0.00517731 3.61959717 0.00422058 4.37036133 0.00323486 C5.91377855 0.00255318 7.45719861 0.00440666 9.00061035 0.00857544 C11.37095544 0.01392391 13.74111104 0.00863011 16.1114502 0.00222778 C17.60754437 0.00288857 19.10363842 0.00416973 20.59973145 0.00613403 C21.31326782 0.0041098 22.0268042 0.00208557 22.76196289 0 C27.76602953 0.02399462 27.76602953 0.02399462 28.88098145 1.13894653 C28.88098145 4.43894653 28.88098145 7.73894653 28.88098145 11.13894653 C21.29098145 11.13894653 13.70098145 11.13894653 5.88098145 11.13894653 C5.88098145 13.44894653 5.88098145 15.75894653 5.88098145 18.13894653 C6.481604 18.13370972 7.08222656 18.1284729 7.7010498 18.12307739 C10.40684982 18.1023664 13.11263321 18.08930528 15.81848145 18.07644653 C16.76400879 18.06806763 17.70953613 18.05968872 18.68371582 18.05105591 C20.03239746 18.04622192 20.03239746 18.04622192 21.4083252 18.04129028 C22.65730591 18.03343506 22.65730591 18.03343506 23.93151855 18.02542114 C25.88098145 18.13894653 25.88098145 18.13894653 26.88098145 19.13894653 C26.88098145 22.10894653 26.88098145 25.07894653 26.88098145 28.13894653 C19.95098145 28.13894653 13.02098145 28.13894653 5.88098145 28.13894653 C5.88098145 31.10894653 5.88098145 34.07894653 5.88098145 37.13894653 C6.60277588 37.13370972 7.32457031 37.1284729 8.0682373 37.12307739 C11.31830993 37.10237295 14.56836873 37.08930735 17.81848145 37.07644653 C18.95479004 37.06806763 20.09109863 37.05968872 21.26184082 37.05105591 C22.34143066 37.04783325 23.42102051 37.0446106 24.5333252 37.04129028 C26.0336731 37.03343506 26.0336731 37.03343506 27.56433105 37.02542114 C29.88098145 37.13894653 29.88098145 37.13894653 30.88098145 38.13894653 C31.15412959 43.87505764 31.15412959 43.87505764 30.88098145 46.13894653 C28.38355741 48.63637057 26.90380534 48.37571117 23.49620056 48.39118958 C22.40082726 48.3804113 22.40082726 48.3804113 21.2833252 48.36941528 C20.15912926 48.36872795 20.15912926 48.36872795 19.01222229 48.36802673 C17.42768775 48.36500464 15.84315618 48.3571196 14.25866699 48.34475708 C11.82472286 48.32649337 9.39115883 48.32424742 6.95715332 48.32449341 C5.42004064 48.31957854 3.88293054 48.31375036 2.3458252 48.30691528 C1.61355209 48.30580246 0.88127899 48.30468964 0.1268158 48.30354309 C-5.00296617 48.25499892 -5.00296617 48.25499892 -6.11901855 47.13894653 C-6.21715842 45.701543 -6.24700136 44.25938326 -6.24841309 42.81863403 C-6.25156525 41.90098267 -6.25471741 40.9833313 -6.25796509 40.03787231 C-6.25594086 39.03997681 -6.25391663 38.0420813 -6.25183105 37.01394653 C-6.25278778 35.99671509 -6.25374451 34.97948364 -6.25473022 33.931427 C-6.25541217 31.77599018 -6.2535569 29.62055131 -6.24938965 27.46511841 C-6.24404161 24.15322282 -6.24933418 20.84146287 -6.2557373 17.52957153 C-6.25507653 15.44102957 -6.25379537 13.35248768 -6.25183105 11.26394653 C-6.25385529 10.26605103 -6.25587952 9.26815552 -6.25796509 8.24002075 C-6.25481293 7.32236938 -6.25166077 6.40471802 -6.24841309 5.45925903 C-6.24761749 4.64731079 -6.2468219 3.83536255 -6.2460022 2.99880981 C-5.97842551 -0.92024658 -3.30466748 0.01584596 0 0 Z " fill="#EE9519" transform="translate(115.1190185546875,130.86105346679688)"/>
<path d="M0 0 C0.71353638 0.00202423 1.42707275 0.00404846 2.16223145 0.00613403 C2.89091431 0.00517731 3.61959717 0.00422058 4.37036133 0.00323486 C5.91377855 0.00255318 7.45719861 0.00440666 9.00061035 0.00857544 C11.37095544 0.01392391 13.74111104 0.00863011 16.1114502 0.00222778 C17.60754437 0.00288857 19.10363842 0.00416973 20.59973145 0.00613403 C21.31326782 0.0041098 22.0268042 0.00208557 22.76196289 0 C27.76602953 0.02399462 27.76602953 0.02399462 28.88098145 1.13894653 C28.97888714 2.63632778 29.01073009 4.13837545 29.00598145 5.63894653 C29.00984863 6.86097778 29.00984863 6.86097778 29.01379395 8.10769653 C28.88098145 10.13894653 28.88098145 10.13894653 27.88098145 11.13894653 C26.24625263 11.22594996 24.60784089 11.24595716 22.9708252 11.23660278 C21.98146973 11.23338013 20.99211426 11.23015747 19.97277832 11.22683716 C18.93186035 11.21845825 17.89094238 11.21007935 16.81848145 11.20144653 C15.77369629 11.19693481 14.72891113 11.1924231 13.65246582 11.18777466 C11.06191485 11.17594566 8.47147586 11.15946343 5.88098145 11.13894653 C5.88098145 13.44894653 5.88098145 15.75894653 5.88098145 18.13894653 C6.481604 18.13370972 7.08222656 18.1284729 7.7010498 18.12307739 C10.40684982 18.1023664 13.11263321 18.08930528 15.81848145 18.07644653 C16.76400879 18.06806763 17.70953613 18.05968872 18.68371582 18.05105591 C20.03239746 18.04622192 20.03239746 18.04622192 21.4083252 18.04129028 C22.65730591 18.03343506 22.65730591 18.03343506 23.93151855 18.02542114 C25.88098145 18.13894653 25.88098145 18.13894653 26.88098145 19.13894653 C27.01379395 20.95144653 27.01379395 20.95144653 27.00598145 23.13894653 C27.00984863 24.22175903 27.00984863 24.22175903 27.01379395 25.32644653 C26.88098145 27.13894653 26.88098145 27.13894653 25.88098145 28.13894653 C24.39226285 28.22564085 22.89953645 28.24598147 21.4083252 28.23660278 C20.5092041 28.23338013 19.61008301 28.23015747 18.68371582 28.22683716 C17.73818848 28.21845825 16.79266113 28.21007935 15.81848145 28.20144653 C14.86908691 28.19693481 13.91969238 28.1924231 12.94152832 28.18777466 C10.58798613 28.17594781 8.23447613 28.15801175 5.88098145 28.13894653 C5.88098145 31.10894653 5.88098145 34.07894653 5.88098145 37.13894653 C13.80098145 37.13894653 21.72098145 37.13894653 29.88098145 37.13894653 C29.88098145 40.43894653 29.88098145 43.73894653 29.88098145 47.13894653 C28.14805165 48.87187633 25.91883809 48.267147 23.60949707 48.27789307 C22.87408691 48.27586884 22.13867676 48.2738446 21.38098145 48.27175903 C20.63010254 48.27271576 19.87922363 48.27367249 19.10559082 48.2746582 C17.51509518 48.27533991 15.92459677 48.27348625 14.33410645 48.26931763 C11.8913349 48.2639692 9.44874723 48.26926287 7.00598145 48.27566528 C5.46431437 48.2750045 3.92264741 48.27372333 2.38098145 48.27175903 C1.64557129 48.27378326 0.91016113 48.2758075 0.15246582 48.27789307 C-5.00406695 48.25389814 -5.00406695 48.25389814 -6.11901855 47.13894653 C-6.21715842 45.701543 -6.24700136 44.25938326 -6.24841309 42.81863403 C-6.25156525 41.90098267 -6.25471741 40.9833313 -6.25796509 40.03787231 C-6.25594086 39.03997681 -6.25391663 38.0420813 -6.25183105 37.01394653 C-6.25278778 35.99671509 -6.25374451 34.97948364 -6.25473022 33.931427 C-6.25541217 31.77599018 -6.2535569 29.62055131 -6.24938965 27.46511841 C-6.24404161 24.15322282 -6.24933418 20.84146287 -6.2557373 17.52957153 C-6.25507653 15.44102957 -6.25379537 13.35248768 -6.25183105 11.26394653 C-6.25385529 10.26605103 -6.25587952 9.26815552 -6.25796509 8.24002075 C-6.25481293 7.32236938 -6.25166077 6.40471802 -6.24841309 5.45925903 C-6.24761749 4.64731079 -6.2468219 3.83536255 -6.2460022 2.99880981 C-5.97842551 -0.92024658 -3.30466748 0.01584596 0 0 Z " fill="#EE9519" transform="translate(253.1190185546875,130.86105346679688)"/>
<path d="M0 0 C3.93836608 3.64298863 4.58596686 6.72107745 5 12 C1.30592157 12.22928763 -2.31237257 12.3644748 -6 12 C-8.25 10 -8.25 10 -10 8 C-14.62071767 7.36196014 -14.62071767 7.36196014 -18.68994141 9.2421875 C-20.35998789 11.48302513 -20.38673624 12.78539981 -20.3984375 15.5625 C-20.40230469 16.44164062 -20.40617187 17.32078125 -20.41015625 18.2265625 C-20.39855469 19.14179688 -20.38695312 20.05703125 -20.375 21 C-20.38660156 21.91523438 -20.39820313 22.83046875 -20.41015625 23.7734375 C-20.40628906 24.65257812 -20.40242188 25.53171875 -20.3984375 26.4375 C-20.39505371 27.24058594 -20.39166992 28.04367188 -20.38818359 28.87109375 C-19.90313759 31.53122026 -19.17512449 32.42355084 -17 34 C-12.34608843 34.38027273 -12.34608843 34.38027273 -8 33 C-7.34 31.35 -6.68 29.7 -6 28 C-2.37 28 1.26 28 5 28 C5 35.69756098 5 35.69756098 2.3984375 39.0859375 C-2.38706892 43.46495303 -6.77072366 45.95893906 -13.4140625 46.0234375 C-20.5848156 45.61182327 -25.45155955 43.81669733 -30.375 38.375 C-34.05072415 33.00278779 -33.22260472 27.60570607 -33.25 21.25 C-33.270625 20.06921875 -33.29125 18.8884375 -33.3125 17.671875 C-33.36254526 6.56182777 -33.36254526 6.56182777 -30 2 C-28.09765625 0.35546875 -28.09765625 0.35546875 -26.0625 -0.8125 C-25.39347656 -1.21082031 -24.72445313 -1.60914063 -24.03515625 -2.01953125 C-15.96671175 -5.90663215 -7.45734563 -4.57304161 0 0 Z " fill="#ED951A" transform="translate(371,134)"/>
<path d="M0 0 C3.96 0 7.92 0 12 0 C14.97 5.28 17.94 10.56 21 16 C23.54905821 11.11180475 23.54905821 11.11180475 26.08544922 6.21704102 C28.77777778 1.11111111 28.77777778 1.11111111 31 0 C32.70702735 -0.06996014 34.41668003 -0.08440154 36.125 -0.0625 C37.03507812 -0.05347656 37.94515625 -0.04445312 38.8828125 -0.03515625 C39.93082031 -0.01775391 39.93082031 -0.01775391 41 0 C42 3 42 3 40.84423828 5.44165039 C40.25884277 6.40063232 39.67344727 7.35961426 39.0703125 8.34765625 C38.12418091 9.9565271 38.12418091 9.9565271 37.15893555 11.59790039 C36.82517914 12.16397003 36.49142273 12.73003967 36.14755249 13.31326294 C29.52108029 24.64888715 26.25581552 33.78659118 27 47 C26 48 26 48 23.75 48.1328125 C22.8425 48.13023437 21.935 48.12765625 21 48.125 C19.63875 48.12886719 19.63875 48.12886719 18.25 48.1328125 C16 48 16 48 15 47 C15.04640625 45.94683594 15.0928125 44.89367187 15.140625 43.80859375 C15.66514537 29.49019627 9.6594475 19.43876209 2.29101562 7.48510742 C1 5 1 5 0 0 Z " fill="#EC941A" transform="translate(380,131)"/>
</svg>
